<svg id="Layer_2" data-name="Layer 2" xmlns="http://www.w3.org/2000/svg" viewBox="0 0 800 800"><path d="M532.145,222.191a248.794,248.794,0,0,0-42.621-22.024c-52.852-21.092-120.416-36.3-172.548-5.788-25.915,15.169-39.574,44.241-65.3,59.936-25.24,15.4-55.538,22.312-77.652,42.771-49.429,45.73-38.318,150.5,6.98,195.52C209.592,521.02,253.8,532.178,287.674,554.3c41.519,27.112,81.9,56.227,130.827,68.322,44.363,10.968,85.416,1.391,118.97-30.066,26.3-24.654,57.486-53.655,78.173-83.045,41.389-58.8,31.205-146.447-4.192-205.632A251.4,251.4,0,0,0,532.145,222.191Z" style="fill:#2e157d"/><circle cx="194.132" cy="321.307" r="9.709" style="fill:#a9a3ff"/><circle cx="331.785" cy="291.237" r="2.008" style="fill:#a9a3ff"/><circle cx="384.271" cy="204.938" r="4.516" style="fill:#a9a3ff"/><circle cx="489.586" cy="235.6" r="3.558" style="fill:#a9a3ff"/><circle cx="503.236" cy="486.638" r="3.16" style="fill:#a9a3ff"/><circle cx="407.969" cy="572.111" r="7.349" style="fill:#a9a3ff"/><circle cx="616.452" cy="418.952" r="3.499" style="fill:#a9a3ff"/><circle cx="254.831" cy="437.122" r="4.926" style="fill:#a9a3ff"/><circle cx="364.235" cy="390.686" r="4.039" style="fill:#a9a3ff"/><circle cx="539.452" cy="340.668" r="3.653" style="fill:#a9a3ff"/><path d="M441.013,348.043c18.461-51.5,58.816-59.326,75.2-56.215,47.53,9.022,59.42,98.09,115.023,102.915,31.789,2.759,45.947-27.473,77-19.64,27.753,7,36.8,36.284,65.592,36.138a46.088,46.088,0,0,0,18.061-3.928" style="fill:none;stroke:#beb4e1;stroke-miterlimit:10;stroke-width:6.35731795542135px"/><path d="M395.206,437.526c-2.609,2.46-1.43,14.414,0,17.674,2.073,4.727,56.553,4,59.512-.74,2.118-3.394,2.471-15.138,0-18.6S398.8,434.132,395.206,437.526Z" style="fill:#a79fbf"/><path d="M452.536,453.664c-1.818,1.39-5.543,1.7-12.919,2.269-12.6.97-13.926-.191-14.49-.872-1.753-2.117-.161-4.506-1.746-12.134a44.915,44.915,0,0,0-1.222-4.626c.119,4.821.038,8.862-.088,11.959-.075,1.853-.164,3.338-1.222,4.539-1.476,1.677-3.938,1.777-7.157,1.658-8.99-.333-13.485-.5-16.324-2.793a13.853,13.853,0,0,1-3.4-4.1,23.1,23.1,0,0,0,1.234,5.635c2.073,4.727,56.553,4,59.512-.74.838-1.342,1.4-3.992,1.618-6.917A11.141,11.141,0,0,1,452.536,453.664Z" style="fill:#cac1ea"/><path d="M331.887,466.191a224.112,224.112,0,0,1,6.113-43.1c2.219-9.195,34.718,1.109,31.706,7.451-4.853,10.217-6.934,28.251-7.341,37.564C355.515,473.1,338.549,474.19,331.887,466.191Z" style="fill:#ede7ff"/><path d="M362.365,468.107a33.848,33.848,0,0,0,.049,5.556c2.338,4.5,12.266,8.54,9.472,13.237-1.486,2.5-6.124,2.616-11.058.079-.211,3.549.625,14.085-3.17,17.438-5.5,4.864-16.329,3.647-22.195-8.4-2.915-5.989-4.043-16.843-3.576-29.824C338.549,474.19,355.515,473.1,362.365,468.107Z" style="fill:#a78fee"/><path d="M338,423.092a224.112,224.112,0,0,0-6.113,43.1c-.329,9.139.137,17.215,1.456,23.29-1.456-23.29,4.5-49.6,17.473-69.591C344.518,418.868,338.88,419.447,338,423.092Z" style="fill:#efe9ff"/><path d="M334.01,468.2c2.045-17.063,7.684-34.249,16.806-48.312-4.116-.444-10-1.546-12.568,2.5a214.143,214.143,0,0,0-6.361,43.8A12.732,12.732,0,0,0,334.01,468.2Z" style="fill:#efe9ff"/><path d="M331.814,468.936a93.374,93.374,0,0,0,1.529,20.545,117.855,117.855,0,0,1,.667-21.279,12.732,12.732,0,0,1-2.123-2.011C331.854,467.117,331.83,468.021,331.814,468.936Z" style="fill:#ede7ff"/><path d="M332.549,455.917c.435-4.774,1.056-9.717,1.848-14.717,6.848,7.173,16.892,10.666,29.541,11.157-.222,1.471-.416,2.92-.59,4.336C352.144,461.27,338.1,460.316,332.549,455.917Z" style="fill:#fff"/><path d="M334.053,448.913a9.047,9.047,0,0,0,3.326,1.35c.565.167,1.155.29,1.745.4.575.131,1.182.23,1.764.346s1.2.175,1.779.3c.59.11,1.2.182,1.789.274,1.192.189,2.383.395,3.589.53l7.242,1.082c2.438.364,4.887.747,7.435,1.367l.035.008a.11.11,0,0,1-.018.216,71.037,71.037,0,0,1-15.018-.449,50.283,50.283,0,0,1-7.35-1.635,24.125,24.125,0,0,1-3.515-1.373,7.277,7.277,0,0,1-2.994-2.3.107.107,0,0,1,.031-.149.108.108,0,0,1,.123,0Z" style="fill:#d7cef2"/><path d="M383.926,438.3c5.086,4.707,74.371,1.4,77.164.349,9.078,4.888,10.158,25.751,30.552,25.751,9.689,0,20.426-10.737,20.426-10.737,10.824,16.061,21.473,9.776,25.139,5.761s4.016-15.188-1.571-25.314-13.617-16.585-21.124-16.585-16.585,9.776-16.585,9.776c-.757-4.3-.783-32.084-5.412-41.9-6.086-12.9-13.443-21.037-40.154-21.3s-68.255,8.893-72.276,12.57C370.919,385.054,378.077,432.889,383.926,438.3Z" style="fill:#ede7ff"/><path d="M452.361,364.1c-19.344-.19-46.464,4.559-61.481,8.59-.742,5.427,3.778,23.956,8.383,26.591,18.742,10.727,89.011-4.869,91.389-13.557.445-1.629.412-4.811-2.723-8.377C482.057,369.2,472.973,364.306,452.361,364.1Z" style="fill:#a79fbf"/><path d="M384.78,352.3c2.094-4.127,86.436-13.975,90.888-10.642s5.5,29,3.142,32.925-86.941,15.974-89.036,13.355S382.667,356.463,384.78,352.3Z" style="fill:#ede7ff"/><path d="M439.4,344.464c-.7.876,3.8,35.745,5.237,36.4s32.157-4.914,33.388-6.547c3.208-4.255.721-29.853-2.465-32.275C474.82,341.48,440.577,342.98,439.4,344.464Z" style="fill:#a79fbf"/><ellipse cx="425.466" cy="355.868" rx="8.614" ry="8.519" transform="translate(14.289 728.155) rotate(-82.068)" style="fill:#cac1ea"/><ellipse cx="424.752" cy="355.595" rx="8.614" ry="8.519" transform="translate(13.945 727.212) rotate(-82.068)" style="fill:#a79fbf"/><path d="M476.347,458.5a20.079,20.079,0,0,0,9.424,5.226c12.329-5.367,16.83-23.343,12.156-36.424C497.75,437.975,484.821,455.945,476.347,458.5Z" style="fill:#fff"/><path d="M479.7,461.085a21.406,21.406,0,0,0,8.488-5.45,31.6,31.6,0,0,0,5.912-8.187,37.221,37.221,0,0,0,3.092-9.781,52.828,52.828,0,0,0,.654-10.359.083.083,0,0,1,.078-.087.084.084,0,0,1,.087.075,53.289,53.289,0,0,1,0,10.49A38.262,38.262,0,0,1,495.3,448a24.9,24.9,0,0,1-5.974,8.833,16.122,16.122,0,0,1-9.6,4.416.084.084,0,0,1-.088-.078A.087.087,0,0,1,479.7,461.085Z" style="fill:#d7cef2"/><path d="M535.636,434.111c-5.586-10.126-13.617-16.585-21.124-16.585s-16.585,9.776-16.585,9.776c7.332,2.444,17.982,19.2,9.708,30.166a49.779,49.779,0,0,0,4.433-3.8c10.824,16.061,21.473,9.776,25.139,5.761S541.223,444.237,535.636,434.111Z" style="fill:#a78fee"/><path d="M526.209,459.774c-3.492-1.571-10.3-6.808-10.824-18.974-.873,4.594-7.75,16.668-21.474,17.638S467.2,441.269,468.6,438.221s17.109-10.046,19.444-28.377c-4.474,12.046-20.84,21.474-35.794,22.547-1.571-8.459-7.669-12.77-16.181-11.053s-13.034,10.5-18.5,11.027c-3.962.38-25.029-3.482-38.561-7.163,1.472,6.552,3.248,11.554,4.917,13.1,5.086,4.707,74.371,1.4,77.164.349,9.078,4.888,10.158,25.751,30.552,25.751,9.689,0,20.426-10.737,20.426-10.737,10.824,16.061,21.473,9.776,25.139,5.761a10.653,10.653,0,0,0,2.245-4.956C536.188,460.4,529.54,461.273,526.209,459.774Z" style="fill:#a79fbf"/><path d="M457,470.925a246.76,246.76,0,0,0-6.732-47.463c-2.444-10.126-38.233,1.222-34.916,8.2,5.345,11.251,7.636,31.112,8.085,41.367C430.978,478.531,449.662,479.734,457,470.925Z" style="fill:#ede7ff"/><path d="M423.435,473.034a37.513,37.513,0,0,1-.054,6.119c-2.575,4.953-13.508,9.4-10.431,14.577,1.636,2.75,6.743,2.881,12.177.087.232,3.909-.688,15.511,3.491,19.2,6.06,5.356,17.982,4.016,24.442-9.252,3.211-6.6,4.452-18.549,3.938-32.844C449.662,479.734,430.978,478.531,423.435,473.034Z" style="fill:#a78fee"/><path d="M456.27,459.61c-.48-5.257-1.164-10.7-2.037-16.207-7.54,7.9-18.6,11.746-32.531,12.287.244,1.62.459,3.216.65,4.775C434.69,465.505,450.157,464.454,456.27,459.61Z" style="fill:#fff"/><path d="M454.824,452.027a11.306,11.306,0,0,1-.464,1.044l-.7.912a12.847,12.847,0,0,1-1.695,1.481,19.72,19.72,0,0,1-3.85,2.123,31.512,31.512,0,0,1-4.082,1.4c-1.386.347-2.786.622-4.188.85-.7.1-1.411.17-2.117.227s-1.41.158-2.12.154a39.345,39.345,0,0,1-4.248-.08,28.553,28.553,0,0,1-8.338-1.767l-.034-.013a.121.121,0,0,1,.052-.234,77.876,77.876,0,0,0,16.448-.736,55.31,55.31,0,0,0,8.057-1.668,26.124,26.124,0,0,0,3.844-1.434,7.786,7.786,0,0,0,3.222-2.388.124.124,0,0,1,.217.117Z" style="fill:#d7cef2"/><path d="M407.438,360.349c24.5,8.207,22.926,73.675-16.351,77.872Z" style="fill:#a78fee"/><path d="M423.659,359.521a5.365,5.365,0,0,1-4.763-2.887c-12.366-23.718-30.019-31.424-38.6-29.322-4.431,1.086-6.678,4.782-6.678,10.987a5.367,5.367,0,0,1-10.733,0c0-11.128,5.554-19.132,14.857-21.412,14.336-3.51,36.344,7.309,50.669,34.785a5.369,5.369,0,0,1-4.754,7.849Z" style="fill:#fff"/><path d="M377.461,328.566a5.442,5.442,0,0,0-.067-1.387c-.028-.15-.061-.3-.1-.447a7.67,7.67,0,0,0-4.683-5.078,5.85,5.85,0,0,0-3.376-.179,18.215,18.215,0,0,0-1.415,1.5,5.081,5.081,0,0,1,4.517-.54,6.747,6.747,0,0,1,4.246,4.9,4.378,4.378,0,0,1-.1,2.058A7.414,7.414,0,0,1,377.461,328.566Z" style="fill:#d7cef2"/><path d="M374.909,331.6a5.636,5.636,0,0,0-.461-1.1c-.074-.133-.154-.263-.238-.39a7.672,7.672,0,0,0-6.069-3.312,5.859,5.859,0,0,0-3.183.863c-.22.5-.425,1.016-.611,1.546a5.043,5.043,0,0,1,3.784-1.584,6.753,6.753,0,0,1,5.6,3.279,4.332,4.332,0,0,1,.576,2.241A10.658,10.658,0,0,1,374.909,331.6Z" style="fill:#d7cef2"/><path d="M373.621,338.279a5.141,5.141,0,0,0-1.415-2.484,7.626,7.626,0,0,0-7.089-1.822,6,6,0,0,0-2.041,1c-.042.4-.09.794-.117,1.2a5.063,5.063,0,0,1,2.375-1.4,6.759,6.759,0,0,1,6.289,1.611,4.2,4.2,0,0,1,1.144,4.207l.3.08a5.323,5.323,0,0,0,.557-2.369Z" style="fill:#d7cef2"/><path d="M373.667,335.258l.154.092c.027-.19.058-.377.091-.561A4.77,4.77,0,0,1,373.667,335.258Z" style="fill:#d7cef2"/><path d="M406.959,336.717a7.662,7.662,0,0,0,4.362-5.342,5.977,5.977,0,0,0,0-2.42q-.643-.584-1.289-1.141a5.025,5.025,0,0,1,.48,3.4,6.745,6.745,0,0,1-4.252,4.887,4.189,4.189,0,0,1-3.344-.225q.717.612,1.435,1.269a5.268,5.268,0,0,0,2.171-.263C406.67,336.833,406.816,336.777,406.959,336.717Z" style="fill:#d7cef2"/><path d="M384.3,325.13a7.661,7.661,0,0,0-.76-6.856,5.885,5.885,0,0,0-2.184-1.944c-.648.05-1.285.122-1.91.222a5.035,5.035,0,0,1,3.413,2.185,6.744,6.744,0,0,1,.516,6.455,4.261,4.261,0,0,1-1.748,1.891,13.353,13.353,0,0,1,1.474-.1,5.419,5.419,0,0,0,1.014-1.435Q384.212,325.345,384.3,325.13Z" style="fill:#d7cef2"/><path d="M428.685,352.3a5.049,5.049,0,0,1-.789,3.94,6.755,6.755,0,0,1-5.83,2.856,4.661,4.661,0,0,1-.762-.127,5.291,5.291,0,0,0,4.793-.036,7.794,7.794,0,0,0,1.094-.747A5.363,5.363,0,0,0,428.685,352.3Z" style="fill:#d7cef2"/><path d="M412.221,343.042c.152-.028.305-.062.456-.1a7.671,7.671,0,0,0,5.08-4.669,6,6,0,0,0,.346-2.224c-.341-.408-.686-.8-1.03-1.2A5.028,5.028,0,0,1,416.98,338a6.745,6.745,0,0,1-4.907,4.235,4.19,4.19,0,0,1-4.1-1.462l0,0q.955,1.046,1.9,2.175A5.237,5.237,0,0,0,412.221,343.042Z" style="fill:#d7cef2"/><path d="M400.581,332.164q.206-.106.4-.23a7.66,7.66,0,0,0,3.473-5.957,5.9,5.9,0,0,0-.559-2.784q-.893-.582-1.785-1.116a5.039,5.039,0,0,1,1.521,3.866,6.739,6.739,0,0,1-3.433,5.49,4.262,4.262,0,0,1-2.641.467q.625.4,1.255.827A5.385,5.385,0,0,0,400.581,332.164Z" style="fill:#d7cef2"/><path d="M378.622,327.9a9,9,0,0,1,1.4-.508,5.344,5.344,0,0,0,.588-1.756c.023-.151.04-.3.052-.456a7.666,7.666,0,0,0-2.757-6.328,5.883,5.883,0,0,0-2.577-1.193q-.882.337-1.709.75a5.028,5.028,0,0,1,3.772,1.087,6.744,6.744,0,0,1,2.4,6.015A4.241,4.241,0,0,1,378.622,327.9Z" style="fill:#d7cef2"/><path d="M417.454,350.7c.156-.007.312-.021.467-.04a7.673,7.673,0,0,0,5.655-3.96,5.971,5.971,0,0,0,.652-2.267c-.3-.462-.6-.908-.9-1.359a5.018,5.018,0,0,1-.487,3.25,6.749,6.749,0,0,1-5.427,3.552,4.184,4.184,0,0,1-3.274-1.246c.382.564.761,1.138,1.137,1.727A5.277,5.277,0,0,0,417.454,350.7Z" style="fill:#d7cef2"/><path d="M388.75,326.664q.149-.175.284-.363a7.66,7.66,0,0,0,.97-6.828,5.828,5.828,0,0,0-2.162-2.844c-.952-.153-1.891-.263-2.812-.323l-.008.046a5.21,5.21,0,0,1,4.207,3.4,6.741,6.741,0,0,1-1.107,6.379,4.422,4.422,0,0,1-1.554,1.181q.593.109,1.205.257A5.529,5.529,0,0,0,388.75,326.664Z" style="fill:#d7cef2"/><path d="M394.1,328.152a4.372,4.372,0,0,1-1.965.874q.582.246,1.173.523a5.491,5.491,0,0,0,1.3-.746c.122-.093.24-.193.355-.3a7.662,7.662,0,0,0,2.363-6.478,5.843,5.843,0,0,0-1.369-3.062q-1.433-.589-2.846-1.053l-.012.029a5.213,5.213,0,0,1,3.412,4.2A6.744,6.744,0,0,1,394.1,328.152Z" style="fill:#d7cef2"/><path d="M354.836,339.446c.6-7.312,27.427-5.1,26.826,2.208Z" style="fill:#a79fbf"/><path d="M354.836,339.446l5.42.446a49.378,49.378,0,0,1,13.088-4.131C365.6,334.047,355.208,334.925,354.836,339.446Z" style="fill:#efe9ff"/><path d="M387.941,344.2c-35.876-17.021-77.835,6.81-78.038,51.328s62.588,59.706,89.56,37.447S423.818,361.222,387.941,344.2Z" style="fill:#fff"/><path d="M387.941,344.2a57.211,57.211,0,0,0-14.571-4.672,81.87,81.87,0,0,0-26.269,9.493,7.843,7.843,0,0,1,6.132,2.662c3.292,4.034,1.206,11.184-4.658,15.97s-13.288,5.395-16.58,1.361a7.934,7.934,0,0,1-1.324-6.8c-10.715,11.779-17.383,27.554-18.74,46.732,10.952,33.947,63.481,43.876,87.532,24.027C426.436,410.717,423.818,361.222,387.941,344.2Z" style="fill:#ede7ff"/><path d="M394.041,419.959c-17.879-7.692-7.27-41.756,11.743-33.526C425.6,395.008,413.872,428.49,394.041,419.959Z" style="fill:#a78fee"/><path d="M316.18,418.055c14.445,14.48,55,12.3,76.475-7.6l14.783,6.285C398.535,464.4,326.925,461.782,316.18,418.055Z" style="fill:#9e36b3"/><path d="M407.438,416.74l-14.783-6.285a56.461,56.461,0,0,1-11.7,8.245c-.478,8.21,3.082,16.71,9.967,20.466a16.561,16.561,0,0,0,3.306,1.419A41.017,41.017,0,0,0,407.438,416.74Z" style="fill:#8d10a0"/><path d="M390.655,416.962c-17.418,16.638-51.689,25.1-70.663,6.979C334.657,434.438,368.958,432.08,390.655,416.962Z" style="fill:#efe9ff"/><path d="M373.975,445.808a56.41,56.41,0,0,1-36.032-.277c25.315,13.518,63.18,5.018,69.5-28.791l-.681-.29C402.057,425.641,392.2,439.71,373.975,445.808Z" style="fill:#8d10a0"/><path d="M398.111,418.411c-15.522-3.98-7.165-35.117,8.9-29.491C424.882,395.181,416.666,423.168,398.111,418.411Z" style="fill:#7f5ce6"/><ellipse cx="465.623" cy="416.911" rx="7.398" ry="10.404" transform="translate(-28.231 33.86) rotate(-4.042)" style="fill:#cac1ea"/><ellipse cx="466.674" cy="416.837" rx="6.344" ry="8.921" transform="translate(-28.223 33.934) rotate(-4.042)" style="fill:#a79fbf"/><ellipse cx="462.569" cy="366.618" rx="9.285" ry="8.191" transform="translate(68.858 806.357) rotate(-86.56)" style="fill:#cac1ea"/><ellipse cx="463.734" cy="366.688" rx="7.962" ry="7.024" transform="translate(69.883 807.585) rotate(-86.56)" style="fill:#a79fbf"/><path d="M468.143,422.368c-4.324,0-5.051-10.794-.447-11.043,15.18-.82,21.9-10.455,21.865-19.03-.036-9.089-7.685-19.157-24.761-20.092-5.953-.326-5.34-11.364.818-11.031,10.61.574,19.532,4.371,25.84,10.368a28.6,28.6,0,0,1,9.164,20.711c.053,13.224-9.946,28.285-32.02,30.1C468.448,422.362,468.3,422.368,468.143,422.368Z" style="fill:#fff"/><path d="M471.131,410.964c-.3.047-.6.092-.9.131-1.039,3.215-.241,8.351,2.11,10.8.344-.055.681-.118,1.018-.18C470.287,419.607,469.929,413.973,471.131,410.964Z" style="fill:#d7cef2"/><path d="M470.376,361.67c-.357-.055-.713-.111-1.075-.158-2.6,2.483-3.244,7.768-1.446,10.967.355.045.7.1,1.046.153C466.73,369.7,467.444,363.748,470.376,361.67Z" style="fill:#d7cef2"/><path d="M486.075,402.7a30.248,30.248,0,0,0,9.537,5.511c.152-.222.3-.448.441-.673-3.334-.636-7.9-3.994-9.535-5.463C486.375,402.283,486.228,402.492,486.075,402.7Z" style="fill:#d7cef2"/><path d="M488.809,387.426a46.664,46.664,0,0,1,10.525-3.418c-.07-.222-.145-.443-.221-.664-2.424.4-7.562,1.658-10.533,3.39C488.661,386.964,488.738,387.2,488.809,387.426Z" style="fill:#d7cef2"/><path d="M489.329,395.1q-.065.382-.145.763c2.9.075,8.656.646,10.141.55.368,0,.69-.01.984-.026.038-.248.073-.5.1-.744C497.884,395.776,492.272,395.191,489.329,395.1Z" style="fill:#d7cef2"/><path d="M480.834,407.5c-.227.143-.457.282-.693.419.441,2.75,2.871,7.341,5.641,9.336.235-.137.46-.282.69-.424C483.533,415.067,481.125,409.825,480.834,407.5Z" style="fill:#d7cef2"/><path d="M483.68,379.3c.181.172.359.345.532.521,1.581-2.482,6.3-6.193,8.656-6.84-.174-.188-.348-.375-.527-.56A18.157,18.157,0,0,0,483.68,379.3Z" style="fill:#d7cef2"/><path d="M476.544,374.74c.275.116.546.234.812.357-.627-2.914,2.177-8.143,4.854-9.857-.267-.128-.536-.253-.809-.375C478.611,366.848,476.222,371.549,476.544,374.74Z" style="fill:#d7cef2"/><ellipse cx="269.728" cy="356.615" rx="34.444" ry="22.181" style="fill:#efe9ff"/><circle cx="254.831" cy="356.615" r="3.339" style="fill:#b1a5d7"/><circle cx="269.728" cy="356.615" r="3.339" style="fill:#b1a5d7"/><circle cx="284.624" cy="356.615" r="3.339" style="fill:#b1a5d7"/></svg>